{"title":"Little House On The Prairie S07E01 XviD - sQnN.avi","uid":5442839,"size":366026752,"categoryP":"video","categoryS":"tv_shows","magnet":"?xt=urn:btih:752847056639297bd562cf0337e7d01a8ca7809d&amp;dn=Little+House+On+The+Prairie+S07E01+XviD+-+sQnN.avi&amp;tr=udp%3A%2F%2Ftracker.openbittorrent.com%3A80&amp;tr=udp%3A%2F%2Fopen.demonii.com%3A1337&amp;tr=udp%3A%2F%2Ftracker.coppersurfer.tk%3A6969&amp;tr=udp%3A%2F%2Fexodus.desync.com%3A6969","seeders":0,"leechers":1,"uploader":"sQnN","files":1,"time":1268932814,"description":"General\nFormat                           : AVI\nFormat/Info                      : Audio Video Interleave\nFile size                        : 349 MiB\nDuration                         : 48mn 37s\nOverall bit rate                 : 1 004 Kbps\nWriting application              : VirtualDubMod 1.5.10.2 (build 2540/release)\nWriting library                  : VirtualDubMod build 2540/release\n\nVideo\nID                               : 0\nFormat                           : MPEG-4 Visual\nFormat profile                   : Advanced Simple@L5\nFormat settings, BVOP            : Yes\nFormat settings, QPel            : No\nFormat settings, GMC             : No warppoints\nFormat settings, Matrix          : Default (H.263)\nCodec ID                         : XVID\nCodec ID/Hint                    : XviD\nDuration                         : 48mn 37s\nBit rate                         : 898 Kbps\nWidth                            : 576 pixels\nHeight                           : 432 pixels\nDisplay aspect ratio             : 4:3\nFrame rate                       : 23.976 fps\nResolution                       : 8 bits\nColorimetry                      : 4:2:0\nScan type                        : Progressive\nBits/(Pixel*Frame)               : 0.150\nStream size                      : 312 MiB (89%)\nWriting library                  : XviD 1.0.3 (UTC 2004-12-20)\n\nAudio\nID                               : 1\nFormat                           : MPEG Audio\nFormat version                   : Version 1\nFormat profile                   : Layer 3\nCodec ID                         : 55\nCodec ID/Hint                    : MP3\nDuration                         : 48mn 37s\nBit rate mode                    : Variable\nBit rate                         : 93.3 Kbps\nNominal bit rate                 : 96.0 Kbps\nChannel(s)                       : 1 channel\nSampling rate                    : 48.0 KHz\nStream size                      : 32.4 MiB (9%)\nAlignment                        : Aligned on interleaves\nInterleave, duration             : 24 ms (0.58 video frame)\nInterleave, preload duration     : 197 ms\nWriting library                  : LAME3.90.\nEncoding settings                : -m m -V 4 -q 2 -lowpass 15.4 --abr 96\n\n","torrent":{"xt":"urn:btih:752847056639297bd562cf0337e7d01a8ca7809d","amp;dn":"Little+House+On+The+Prairie+S07E01+XviD+-+sQnN.avi","amp;tr":["udp%3A%2F%2Ftracker.openbittorrent.com%3A80","udp%3A%2F%2Fopen.demonii.com%3A1337","udp%3A%2F%2Ftracker.coppersurfer.tk%3A6969","udp%3A%2F%2Fexodus.desync.com%3A6969"],"infoHash":"752847056639297bd562cf0337e7d01a8ca7809d","infoHashBuffer":{"type":"Buffer","data":[117,40,71,5,102,57,41,123,213,98,207,3,55,231,208,26,140,167,128,157]},"announce":[],"urlList":[]}}